# xmcd
#
# Track frame offsets:
#	150
#	12325
#	32455
#	48725
#	66610
#	82267
#	101540
#
# Disc length: 1646 seconds
#
# Revision: 1
# Processed by: cddbd v1.5.1PL0 Copyright (c) Steve Scherf et al.
# Submitted via: CDex 1.50Beta5
#
DISCID=5d066c07
DTITLE=Various Artist - WINNERS
DYEAR=1900
DGENRE=Soundtrack
TTITLE0=U.W.F.インターナショナル公式メインテーマ
TTITLE1=Power And Glory
TTITLE2=Flame Of Mind
TTITLE3=The Explosion
TTITLE4=Legend From The East
TTITLE5=Keep On Burning
TTITLE6=絆
EXTD=U.W.F. International Official Music Serection
EXTT0=
EXTT1=
EXTT2=
EXTT3=
EXTT4=
EXTT5=
EXTT6=
PLAYORDER=
